<?xml version="1.0" encoding="UTF-8"?>
<svg width="16px" height="16px" viewBox="0 0 16 8" version="1.1" xmlns="http://www.w3.org/2000/svg" xmlns:xlink="http://www.w3.org/1999/xlink">
    <!-- Generator: Sketch 52.5 (67469) - http://www.bohemiancoding.com/sketch -->
    <title>icon-link</title>
    <desc>Created with Sketch.</desc>
    <g id="Page-1" stroke="none" stroke-width="1" fill="none" fill-rule="evenodd">
        <g id="icon-link" transform="translate(0.000000, -4.000000)">
            <polygon id="Stroke-1" points="0 0 15.999999 0 15.999999 15.999999 0 15.999999"></polygon>
            <path d="M1.52000007,7.99999998 C1.52000007,6.6319999 2.63199997,5.51999967 3.99999999,5.51999967 L7.2,5.51999967 L7.2,4 L3.99999999,4 C1.79199981,4 0,5.79199985 0,7.99999998 C0,10.2080002 1.79199981,12 3.99999999,12 L7.2,12 L7.2,10.4800002 L3.99999999,10.4800002 C2.63199997,10.4800002 1.52000007,9.368 1.52000007,7.99999998 Z M4.79999998,8.80000001 L11.2,8.80000001 L11.2,7.20000001 L4.79999998,7.20000001 L4.79999998,8.80000001 Z M12,4 L8.79999999,4 L8.79999999,5.51999967 L12,5.51999967 C13.3679992,5.51999967 14.4800002,6.6319999 14.4800002,7.99999998 C14.4800002,9.368 13.3680007,10.4800002 12,10.4800002 L8.79999999,10.4800002 L8.79999999,12 L12,12 C14.2080002,12 16,10.2080002 16,7.99999998 C16,5.79199985 14.2080002,4 12,4 Z" id="Fill-2" fill="#00009C" fill-rule="nonzero"></path>
        </g>
    </g>
</svg>