<?xml version="1.0" encoding="UTF-8"?>
<svg width="16px" height="16px" viewBox="0 0 16 16" version="1.1" xmlns="http://www.w3.org/2000/svg" xmlns:xlink="http://www.w3.org/1999/xlink">
    <!-- Generator: Sketch 52.5 (67469) - http://www.bohemiancoding.com/sketch -->
    <title>icon-sched</title>
    <desc>Created with Sketch.</desc>
    <g id="Page-1" stroke="none" stroke-width="1" fill="none" fill-rule="evenodd">
        <g id="icon-sched">
            <polygon id="Stroke-1" points="0 0 16 0 16 16 0 16"></polygon>
            <path d="M7.11111111,12.4444444 C7.11111111,12.9333327 7.51111093,13.3333333 8,13.3333333 C8.48888897,13.3333333 8.88888889,12.9333327 8.88888889,12.4444444 C8.88888889,11.9555561 8.48888897,11.5555556 8,11.5555556 C7.51111093,11.5555556 7.11111111,11.9555561 7.11111111,12.4444444 Z M7.11111111,0 L7.11111111,3.55555556 L8.88888889,3.55555556 L8.88888889,1.84888881 C11.9022216,2.28444417 14.2222223,4.86222245 14.2222223,8 C14.2222223,11.4399999 11.4399999,14.2222223 8,14.2222223 C4.56000009,14.2222223 1.77777777,11.4399999 1.77777777,8 C1.77777777,6.50666631 2.30222236,5.13777753 3.18222215,4.07111104 L8,8.88888889 L9.25333316,7.63555564 L3.20888857,1.59111108 L3.20888857,1.60888884 C1.26222228,3.06666649 0,5.37777795 0,8 C0,12.4177788 3.57333332,16 8,16 C12.4177788,16 16,12.4177772 16,8 C16,3.58222283 12.4177772,0 8,0 L7.11111111,0 Z M13.3333333,8 C13.3333333,7.51111093 12.9333327,7.11111111 12.4444444,7.11111111 C11.9555561,7.11111111 11.5555556,7.51111093 11.5555556,8 C11.5555556,8.48888897 11.9555561,8.88888889 12.4444444,8.88888889 C12.9333327,8.88888889 13.3333333,8.48888897 13.3333333,8 Z M2.66666667,8 C2.66666667,8.48888897 3.06666649,8.88888889 3.55555556,8.88888889 C4.04444461,8.88888889 4.44444444,8.48888897 4.44444444,8 C4.44444444,7.51111093 4.04444461,7.11111111 3.55555556,7.11111111 C3.06666649,7.11111111 2.66666667,7.51111093 2.66666667,8 Z" id="Fill-2" fill="#00009C" fill-rule="nonzero"></path>
        </g>
    </g>
</svg>