<?xml version="1.0" encoding="UTF-8"?>
<svg width="16px" height="16px" viewBox="0 0 16 16" version="1.1" xmlns="http://www.w3.org/2000/svg" xmlns:xlink="http://www.w3.org/1999/xlink">
    <!-- Generator: Sketch 52.5 (67469) - http://www.bohemiancoding.com/sketch -->
    <title>icon-w3w</title>
    <desc>Created with Sketch.</desc>
    <g id="Page-1" stroke="none" stroke-width="1" fill="none" fill-rule="evenodd">
        <g id="icon-w3w" fill="#00009C" fill-rule="nonzero">
            <path d="M0,0 L0,16 L16,16 L16,0 L0,0 Z M4.20533333,11.394 C4.02472372,11.3937905 3.8555542,11.3055543 3.75202586,11.1575619 C3.64849753,11.0095694 3.62360859,10.8204015 3.68533333,10.6506667 L5.752,4.97 C5.81494971,4.77784142 5.97759305,4.63524337 6.1763337,4.59796413 C6.37507435,4.56068489 6.57833943,4.63464682 6.70664883,4.79092953 C6.83495822,4.94721225 6.8679281,5.16098794 6.79266667,5.34866667 L4.726,11.0293333 C4.6460566,11.2480225 4.43817608,11.3936187 4.20533333,11.394 Z M6.96666667,11.394 C6.78605706,11.3937905 6.61688753,11.3055543 6.5133592,11.1575619 C6.40983086,11.0095694 6.38494192,10.8204015 6.44666667,10.6506667 L8.51333333,4.97 C8.57628304,4.77784142 8.73892639,4.63524337 8.93766704,4.59796413 C9.13640769,4.56068489 9.33967277,4.63464682 9.46798216,4.79092953 C9.59629156,4.94721225 9.62926143,5.16098794 9.554,5.34866667 L7.48733333,11.0293333 C7.40730585,11.2482516 7.19908708,11.3938982 6.966,11.394 L6.96666667,11.394 Z M12.316,5.34866667 L10.2493333,11.0293333 C10.1380533,11.3068313 9.8266615,11.4459727 9.54570412,11.343741 C9.26474675,11.2415092 9.11559049,10.9347885 9.20866667,10.6506667 L11.2753333,4.97 C11.338283,4.77784142 11.5009264,4.63524337 11.699667,4.59796413 C11.8984077,4.56068489 12.1016728,4.63464682 12.2299822,4.79092953 C12.3582916,4.94721225 12.3912614,5.16098794 12.316,5.34866667 Z" id="Shape"></path>
        </g>
    </g>
</svg>