<?xml version="1.0" encoding="UTF-8"?>
<svg width="15px" height="15px" viewBox="0 0 15 15" version="1.1" xmlns="http://www.w3.org/2000/svg" xmlns:xlink="http://www.w3.org/1999/xlink">
    <!-- Generator: Sketch 52.5 (67469) - http://www.bohemiancoding.com/sketch -->
    <title>icon-tel</title>
    <desc>Created with Sketch.</desc>
    <g id="Page-1" stroke="none" stroke-width="1" fill="none" fill-rule="evenodd">
        <g id="icon-tel" fill="#00009C">
            <path d="M14.73,12.996 C14.267,14.403 12.453,15.105 11.157,14.988 C9.387,14.828 7.461,13.889 5.999,12.855 C3.85,11.335 1.837,8.984 0.664,6.489 C-0.165,4.726 -0.351,2.558 0.882,0.951 C1.338,0.357 1.832,0.04 2.572,0.003 C3.6,-0.047 3.744,0.541 4.097,1.457 C4.36,2.142 4.711,2.841 4.907,3.551 C5.274,4.876 3.991,4.931 3.829,6.014 C3.729,6.697 4.556,7.613 4.93,8.1 C5.65088511,9.04847321 6.53381201,9.86199826 7.538,10.503 C8.108,10.862 9.026,11.509 9.678,11.152 C10.682,10.602 10.588,8.909 11.991,9.482 C12.718,9.778 13.422,10.205 14.116,10.579 C15.189,11.156 15.139,11.754 14.73,12.996 C14.424,13.924 15.036,12.068 14.73,12.996" id="Path"></path>
        </g>
    </g>
</svg>